<?xml version="1.0" encoding="utf-8"?>
<!-- Generator: Adobe Illustrator 28.1.0, SVG Export Plug-In . SVG Version: 6.00 Build 0)  -->
<svg version="1.1" id="Camada_1" xmlns="http://www.w3.org/2000/svg" xmlns:xlink="http://www.w3.org/1999/xlink" x="0px" y="0px"
	 viewBox="0 0 110 135" style="enable-background:new 0 0 110 135;" xml:space="preserve">
<path d="M71,38h8c1.1,0,2-0.9,2-2V20c0-1.1-0.9-2-2-2H67c-12.1,0-22,9.9-22,22v10.2H31c-1.1,0-2,0.9-2,2V68c0,1.1,0.9,2,2,2h12.6v30
	c0,1.1,0.9,2,2,2h16.7c1.1,0,2-0.9,2-2V70h10.5c0.9,0,1.7-0.6,1.9-1.5l4.2-16c0.2-0.6,0-1.2-0.4-1.7c-0.4-0.5-1-0.8-1.6-0.8H65v-6
	C65,40.7,67.7,38,71,38L71,38z"/>
</svg>
