<?xml version="1.0" encoding="utf-8"?>
<!-- Generator: Adobe Illustrator 28.1.0, SVG Export Plug-In . SVG Version: 6.00 Build 0)  -->
<svg version="1.1" id="Camada_1" xmlns="http://www.w3.org/2000/svg" xmlns:xlink="http://www.w3.org/1999/xlink" x="0px" y="0px"
	 viewBox="0 0 483.3 665.1" style="enable-background:new 0 0 483.3 665.1;" xml:space="preserve">
<style type="text/css">
	.st0{fill-rule:evenodd;clip-rule:evenodd;}
</style>
<g>
	<polygon class="st0" points="7,664.1 7,627.9 12,627.9 12,642.7 30.8,642.7 30.8,627.9 35.7,627.9 35.7,664.1 30.8,664.1 
		30.8,647.2 12,647.2 12,664.1 7,664.1 	"/>
	<polygon class="st0" points="42.6,664.1 42.6,627.9 68.4,627.9 68.4,632.3 47.4,632.3 47.4,643.2 66.8,643.2 66.8,647.4 
		47.4,647.4 47.4,659.5 68.8,659.5 68.8,664.1 42.6,664.1 	"/>
	<path class="st0" d="M80.3,649h11.3L86,633L80.3,649L80.3,649z M69.9,664.1l13.4-36.3h5.4l13.5,36.3h-5.3l-3.8-10.9H78.8L75,664.1
		H69.9L69.9,664.1z"/>
	<polygon class="st0" points="105.1,664.1 105.1,627.9 110.1,627.9 110.1,659.5 128.1,659.5 128.1,664.1 105.1,664.1 	"/>
	<polygon class="st0" points="135,664.1 135,632.3 123.6,632.3 123.6,627.9 151.4,627.9 151.4,632.3 140,632.3 140,664.1 135,664.1 
			"/>
	<polygon class="st0" points="154.9,664.1 154.9,627.9 159.9,627.9 159.9,642.7 178.6,642.7 178.6,627.9 183.6,627.9 183.6,664.1 
		178.6,664.1 178.6,647.2 159.9,647.2 159.9,664.1 154.9,664.1 	"/>
	<path class="st0" d="M214.8,641.6c1.7-1.1,3-2.1,3.8-3.2c0.8-1.1,1.2-2.4,1.2-3.6c0-1.3-0.4-2.3-1.2-3.1c-0.8-0.8-1.8-1.2-3.1-1.2
		c-1.4,0-2.6,0.4-3.4,1.1c-0.8,0.8-1.2,1.9-1.2,3.2c0,1,0.3,2,0.9,3.1C212.5,639,213.4,640.3,214.8,641.6L214.8,641.6z M213.1,646.2
		c-2.3,1.2-3.8,2.5-4.9,3.8c-0.9,1.2-1.4,2.6-1.4,4.1c0,1.9,0.6,3.5,1.9,4.8c1.3,1.2,2.8,1.8,4.9,1.8c1.4,0,2.9-0.4,4.2-1.1
		c1.3-0.7,2.6-1.8,3.8-3.1L213.1,646.2L213.1,646.2z M210.7,643.2c-1.3-1.4-2.4-2.9-3-4.3c-0.7-1.3-0.9-2.6-0.9-4
		c0-2.4,0.8-4.3,2.4-5.8c1.6-1.5,3.7-2.2,6.2-2.2c2.7,0,4.7,0.7,6.3,2c1.5,1.4,2.3,3.3,2.3,5.6c0,1.9-0.5,3.7-1.6,5.2
		c-1.1,1.5-2.8,3-5.1,4.4l6.7,8.3c0.5-0.8,0.8-1.7,1-2.6c0.2-1,0.4-2.2,0.5-3.4h4.2c0,1.8-0.2,3.4-0.7,5c-0.4,1.5-1.1,3-2.1,4.4
		l6.8,8.2h-6.1l-3.5-4.4c-1.4,1.7-3.1,3-5,4c-1.9,0.9-3.9,1.3-6.1,1.3c-3.2,0-5.8-1-7.8-2.9c-2-2-3-4.5-3-7.5c0-2.3,0.7-4.3,2-6
		C205.5,646.6,207.7,644.9,210.7,643.2L210.7,643.2z"/>
	<path class="st0" d="M248.2,652.2h4.8c0,2.6,0.9,4.7,2.5,6.2c1.8,1.6,4,2.3,6.8,2.3c2.9,0,5-0.6,6.7-1.7c1.6-1.2,2.4-2.7,2.4-4.9
		c0-2.7-3-4.8-9.1-6.3c-0.4,0-0.6-0.1-0.8-0.2c-4.9-1.2-8.1-2.5-9.8-3.9c-1.5-1.4-2.3-3.4-2.3-6.1c0-3.2,1.2-5.8,3.5-7.8
		c2.4-2,5.5-3,9.4-3c4,0,7.2,1.1,9.5,3.1c2.3,2,3.4,4.8,3.5,8.5h-4.7c-0.2-2.4-1-4.3-2.5-5.6c-1.5-1.3-3.5-1.9-6.1-1.9
		c-2.4,0-4.3,0.6-5.8,1.6c-1.4,1.1-2.2,2.5-2.2,4.2c0,2.8,3,4.9,9,6.3c0.9,0.2,1.5,0.4,2,0.5c0.1,0,0.2,0.1,0.5,0.1
		c3.9,0.9,6.5,2,7.8,3c0.9,0.8,1.7,1.8,2.2,3c0.5,1.2,0.7,2.5,0.7,3.9c0,3.5-1.2,6.3-3.8,8.3c-2.4,2.1-5.8,3.1-10.1,3.1
		c-4.4,0-7.9-1.1-10.3-3.3C249.7,659.5,248.4,656.3,248.2,652.2L248.2,652.2z"/>
	<path class="st0" d="M286.4,644.4h8.3c2.9,0,4.9-0.5,6-1.4c1.2-0.9,1.7-2.5,1.7-4.7c0-2.2-0.6-3.7-1.7-4.6c-1.1-1-3-1.4-5.6-1.4
		h-8.6V644.4L286.4,644.4z M281.5,664.1v-36.3h13.3c2.2,0,3.8,0.1,5,0.3c1.1,0.3,2.1,0.6,3,1.1c1.4,0.8,2.6,2,3.4,3.6
		c0.8,1.6,1.2,3.4,1.2,5.5c0,2-0.4,3.8-1.2,5.3c-0.8,1.5-1.9,2.8-3.4,3.7c-0.9,0.5-1.9,0.9-3.1,1.2c-1.1,0.2-3,0.3-5.8,0.3h-7.5
		v15.3H281.5L281.5,664.1z"/>
	<path class="st0" d="M315.4,649h11.3l-5.6-16L315.4,649L315.4,649z M304.9,664.1l13.5-36.3h5.4l13.5,36.3H332l-3.8-10.9h-14.3
		l-3.9,10.9H304.9L304.9,664.1z"/>
	<path class="st0" d="M378.4,650.6h4.8c-0.2,4.4-1.8,8-4.6,10.6c-2.8,2.6-6.4,3.9-10.8,3.9c-5.1,0-9.1-1.7-12-5.2
		c-2.9-3.4-4.3-8.2-4.3-14.4c0-5.7,1.5-10.2,4.5-13.5c3-3.3,7.1-5,12.3-5c4.1,0,7.5,1.1,10.1,3.2c2.6,2.1,4.1,5,4.5,8.6h-4.9
		c-0.4-2.4-1.5-4.2-3.3-5.5c-1.7-1.3-3.9-1.9-6.7-1.9c-3.7,0-6.5,1.3-8.6,3.9c-2,2.5-3,6.1-3,10.9c0,4.4,1,8,3.1,10.6
		c2.1,2.7,4.9,4,8.4,4c3,0,5.4-0.9,7.3-2.8C377.3,656.1,378.2,653.7,378.4,650.6L378.4,650.6z"/>
	<polygon class="st0" points="388.1,664.1 388.1,627.9 393.1,627.9 393.1,659.5 411.1,659.5 411.1,664.1 388.1,664.1 	"/>
	<path class="st0" d="M413.1,650.4v-22.5h4.9v22.5c0,3.4,0.8,5.9,2.3,7.5c1.5,1.6,3.8,2.5,7,2.5c3.1,0,5.4-0.8,6.9-2.5
		c1.5-1.7,2.3-4.2,2.3-7.5v-22.5h5v22.5c0,4.8-1.2,8.5-3.8,11c-2.5,2.5-6.2,3.7-11,3.7c-4.5,0-7.9-1.2-10.1-3.7
		C414.2,659,413.1,655.3,413.1,650.4L413.1,650.4z"/>
	<path class="st0" d="M448.1,664.1v-36.3h14.6c3.8,0,6.5,0.8,8.4,2.2c1.9,1.5,2.8,3.7,2.8,6.6c0,1.9-0.4,3.5-1.3,4.8
		c-0.9,1.3-2.2,2.3-3.9,3c2.2,0.4,3.9,1.4,5.1,2.9c1.2,1.5,1.9,3.5,1.9,5.8c0,3.3-1.1,5.9-3.3,7.9c-2.2,2-5.2,3-9,3H448.1
		L448.1,664.1z M453,643.1h8.6c2.6,0,4.4-0.5,5.6-1.4c1.2-0.9,1.8-2.4,1.8-4.4c0-1.8-0.5-3.2-1.7-4c-1.2-0.9-2.9-1.3-5.3-1.3H453
		V643.1L453,643.1z M453,659.7h10c2.5,0,4.4-0.5,5.7-1.6c1.3-1.2,1.9-2.8,1.9-4.9c0-2.1-0.7-3.6-2-4.6c-1.3-1-3.4-1.5-6.2-1.5H453
		V659.7L453,659.7z"/>
	<path class="st0" d="M306.2,378.4h92.4c-9.4,36.5-28.3,65.3-56.8,86.1c-28.2,20.6-62.8,30.9-103.6,30.9c-50.2,0-90-16.8-119.2-50.4
		c-29.3-33.8-44-79.5-44-137.1c0-56.7,14.4-101.5,43.4-134.2c28.9-32.7,68.4-49.1,118.5-49.1c53.2,0,94.2,16.2,123.1,48.5
		c28.9,32.1,43.3,77.9,43.3,137.4c0,6.6,0,11.6-0.3,15c0,3.2-0.2,6.3-0.7,9.2H171c1.3,27.2,7.9,47.7,19.8,61.6
		c12.1,13.8,29.4,20.7,51.9,20.7c15.9,0,29-3.1,39.2-9.3C292.2,401.4,300.3,391.6,306.2,378.4L306.2,378.4z M171,273.8h136.4
		c-0.8-23.4-7.1-41.1-18.8-53.3c-11.5-12.3-28-18.5-49.7-18.5c-20.2,0-36.1,6.2-47.8,18.5C179.6,232.9,173,250.7,171,273.8
		L171,273.8z"/>
	<path class="st0" d="M44.7,71.8h17.9c-1.8,7.1-5.5,12.6-11,16.6c-5.5,4-12.1,6-20.1,6c-9.7,0-17.3-3.2-23-9.7
		C2.8,78.1,0,69.3,0,58.1c0-10.9,2.8-19.6,8.4-25.9c5.6-6.4,13.2-9.5,22.9-9.5c10.3,0,18.2,3.1,23.7,9.3c5.6,6.2,8.4,15.1,8.4,26.6
		c0,1.3,0,2.2-0.1,2.9c0,0.6,0,1.2-0.1,1.8H18.5c0.2,5.3,1.5,9.2,3.8,11.9c2.3,2.7,5.7,4,10.1,4c3.1,0,5.6-0.6,7.6-1.8
		C41.9,76.3,43.5,74.3,44.7,71.8L44.7,71.8z M18.5,51.6h26.3c-0.2-4.5-1.4-7.9-3.6-10.3c-2.2-2.4-5.4-3.6-9.7-3.6
		c-3.9,0-7,1.2-9.2,3.6C20.2,43.7,18.9,47.1,18.5,51.6L18.5,51.6z"/>
	<path class="st0" d="M126.4,25.2v66.9h-17.6v-8c-2.5,3.2-5.5,5.7-8.9,7.3c-3.3,1.6-7.2,2.4-11.4,2.4c-7.3,0-12.8-1.9-16.5-5.8
		c-3.7-3.8-5.5-9.6-5.5-17.3V25.2h17.9v40.4c0,4.8,0.8,8.1,2.4,10.3c1.6,2,4.2,3,8,3c4.2,0,7.5-1.2,9.9-3.7c2.6-2.6,3.8-6,3.8-10.3
		V25.2H126.4L126.4,25.2z"/>
	<path class="st0" d="M148.2,57.6c0,6.3,1.3,11.1,3.8,14.5c2.5,3.4,6.1,5,10.8,5c4.7,0,8.4-1.7,10.8-5c2.5-3.4,3.7-8.3,3.7-14.7
		c0-6.2-1.3-10.9-3.8-14.2c-2.6-3.4-6.2-5-10.9-5c-4.6,0-8.1,1.7-10.6,5.1C149.5,46.6,148.2,51.4,148.2,57.6L148.2,57.6z M132,98.6
		l19.6-0.1c0.6,2.2,1.8,3.9,3.5,5c1.8,1.1,4.2,1.7,7.2,1.7c5.6,0,9.5-1.1,11.7-3.6c2.2-2.3,3.3-6.7,3.3-13v-6
		c-1.9,3.3-4.3,5.6-7.4,7.2c-3,1.5-6.8,2.3-11.3,2.3c-8.7,0-15.6-3.1-20.8-9.3c-5.2-6.2-7.8-14.4-7.8-24.7c0-10.8,2.6-19.4,7.6-25.8
		c5.2-6.4,12-9.6,20.7-9.6c4.6,0,8.4,0.9,11.5,2.6c3.2,1.7,5.8,4.4,7.8,7.9v-8h17v62.5c0,7-0.7,12.3-2,16c-1.3,3.7-3.6,6.8-6.7,9.3
		c-2.7,2.1-6.1,3.7-10.4,4.8c-4.1,1.1-8.9,1.6-14.2,1.6c-8.9,0-16-1.8-21.1-5.5C135.2,110.3,132.4,105.2,132,98.6L132,98.6z"/>
	<path class="st0" d="M243.2,71.8h17.9c-1.7,7.1-5.4,12.6-10.9,16.6c-5.4,4-12.1,6-20,6c-9.7,0-17.3-3.2-23-9.7
		c-5.6-6.6-8.5-15.4-8.5-26.5c0-10.9,2.8-19.6,8.4-25.9c5.6-6.4,13.2-9.5,22.9-9.5c10.3,0,18.2,3.1,23.7,9.3
		c5.6,6.2,8.4,15.1,8.4,26.6c0,1.3,0,2.2-0.1,2.9c0,0.6-0.1,1.2-0.1,1.8h-44.7c0.2,5.3,1.5,9.2,3.8,11.9c2.4,2.7,5.7,4,10.1,4
		c3.1,0,5.6-0.6,7.6-1.8C240.5,76.3,242.1,74.3,243.2,71.8L243.2,71.8z M217.1,51.6h26.4c-0.2-4.5-1.3-7.9-3.6-10.3
		c-2.2-2.4-5.4-3.6-9.6-3.6c-4,0-7,1.2-9.3,3.6C218.8,43.7,217.5,47.1,217.1,51.6L217.1,51.6z M250.7,0l-15.5,17.1h-11.1L232.5,0
		H250.7L250.7,0z"/>
	<path class="st0" d="M265.4,92.1V25.2h17.6v7.9c2.5-3.2,5.5-5.7,8.9-7.3c3.4-1.6,7.2-2.5,11.4-2.5c7.4,0,12.9,1.9,16.6,5.8
		c3.7,3.8,5.5,9.6,5.5,17.3v45.7h-17.9V51.7c0-4.8-0.9-8.2-2.5-10.3c-1.6-2-4.2-3.1-7.9-3.1c-4.2,0-7.6,1.3-10,3.8
		c-2.5,2.5-3.7,5.9-3.7,10.3v39.8H265.4L265.4,92.1z"/>
	<path class="st0" d="M332.6,17.7V1.4h17.9v16.4H332.6L332.6,17.7z M332.6,92.1V25.2h17.9v66.9H332.6L332.6,92.1z"/>
	<path class="st0" d="M372.7,58.6c0,6.6,1.4,11.8,4.1,15.4c2.8,3.6,6.7,5.4,11.7,5.4c5,0,8.8-1.8,11.5-5.4c2.8-3.6,4.1-8.7,4.1-15.4
		c0-6.6-1.3-11.7-4.1-15.3c-2.7-3.6-6.5-5.4-11.6-5.4c-5,0-8.9,1.8-11.7,5.4C374.1,46.9,372.7,51.9,372.7,58.6L372.7,58.6z
		 M354.6,58.6c0-11.2,3-19.9,9.1-26.3c6.1-6.4,14.3-9.5,24.9-9.5c10.5,0,18.8,3.2,24.9,9.5c6,6.4,9.1,15.1,9.1,26.3
		c0,11.1-3.1,19.9-9.1,26.3c-6.1,6.4-14.4,9.6-24.9,9.6c-10.5,0-18.8-3.2-24.9-9.6C357.6,78.5,354.6,69.7,354.6,58.6L354.6,58.6z"/>
	<path class="st0" d="M422.4,70.4h17.9c0.2,3.4,1.4,5.9,3.7,7.6c2.3,1.6,5.8,2.5,10.4,2.5c3.5,0,6.2-0.6,8-1.7c2-1.2,2.9-2.8,2.9-5
		c0-3-3.6-5.3-10.7-6.8c-2.9-0.6-5.3-1.2-7-1.6c-8.7-2.3-14.8-4.9-18.2-7.9c-3.4-3-5.1-7.2-5.1-12.3c0-6.8,2.5-12.3,7.4-16.2
		c5-4,11.7-6,20.1-6c9,0,15.9,2,21.1,6c5.2,4,7.9,9.6,8.2,16.8h-17.4c-0.1-2.8-1.2-5-3.3-6.6c-2-1.6-4.8-2.4-8.4-2.4
		c-3.4,0-6,0.5-7.6,1.6c-1.7,1-2.5,2.6-2.5,4.6c0,2.7,4.5,5,13.4,7.1c2.1,0.5,3.7,0.8,4.9,1.1c8.9,2.1,15,4.6,18.2,7.6
		c3.3,2.9,5,7.1,5,12.5c0,7.6-2.8,13.4-8.1,17.4c-5.3,4-13.1,6-23.3,6c-9.2,0-16.5-2.1-21.7-6.2c-5.2-4.1-7.9-9.9-7.9-17.1V70.4
		L422.4,70.4z"/>
	<path class="st0" d="M480.5,110.3c0,0,2.5,39,1.7,103.4c-2.3,194.4-38.4,330.1-240.7,385.4c0,0-18.4-5-34.8-11.5
		C24.6,516.1,3.1,393.5,0.9,213.8c-0.7-64.5,1.7-103.4,1.7-103.4l60-0.4c0,0-3.5,41.4-2.8,103.1c1.9,161,15.8,268,181.7,324.7
		c166-56.7,179.8-163.6,181.8-324.7c0.7-61.7-2.7-103.1-2.7-103.1L480.5,110.3L480.5,110.3z"/>
</g>
</svg>
