<?xml version="1.0" encoding="utf-8"?>
<!-- Generator: Adobe Illustrator 28.1.0, SVG Export Plug-In . SVG Version: 6.00 Build 0)  -->
<svg version="1.1" id="Camada_1" xmlns="http://www.w3.org/2000/svg" xmlns:xlink="http://www.w3.org/1999/xlink" x="0px" y="0px"
	 viewBox="0 0 100 125" style="enable-background:new 0 0 100 125;" xml:space="preserve">
<g>
	<path d="M66.2,18H33.8C25.1,18,18,25.1,18,33.8v32.4C18,74.9,25.1,82,33.8,82h32.4C74.9,82,82,74.9,82,66.2V33.8
		C82,25.1,74.9,18,66.2,18z M65.9,38.2c-2.2,0-4.1-1.8-4.1-4.1s1.8-4.1,4.1-4.1c2.2,0,4.1,1.8,4.1,4.1S68.1,38.2,65.9,38.2
		L65.9,38.2z M50,34.8c8.4,0,15.2,6.8,15.2,15.2S58.4,65.2,50,65.2S34.8,58.4,34.8,50C34.8,41.6,41.6,34.8,50,34.8z"/>
	<path d="M50,59.2c5.1,0,9.2-4.1,9.2-9.2s-4.1-9.2-9.2-9.2s-9.2,4.1-9.2,9.2v0C40.8,55.1,44.9,59.2,50,59.2z"/>
</g>
</svg>
